<?xml version="1.0" encoding="utf-8"?>
<!-- Generator: Adobe Illustrator 25.2.1, SVG Export Plug-In . SVG Version: 6.00 Build 0)  -->
<svg version="1.1" id="Слой_1" xmlns="http://www.w3.org/2000/svg" xmlns:xlink="http://www.w3.org/1999/xlink" x="0px" y="0px"
	 viewBox="0 0 3008.9 2000" style="enable-background:new 0 0 3008.9 2000;" xml:space="preserve">
<style type="text/css">
	.st0{fill:#E0E0E0;}
	.st1{fill:#D9D9D9;}
	.st2{fill:#B8B8B8;}
	.st3{opacity:0.43;}
	.st4{fill:url(#SVGID_1_);}
	.st5{opacity:0.22;}
	.st6{fill:url(#SVGID_2_);}
	.st7{fill:url(#SVGID_3_);}
	.st8{fill:url(#SVGID_4_);}
	.st9{fill:url(#SVGID_5_);}
	.st10{fill:#FF8557;}
	.st11{fill:#0064B5;}
	.st12{fill:#004E8C;}
	.st13{fill:url(#SVGID_6_);}
	.st14{fill:#6A75BA;}
	.st15{fill:#545D94;}
	.st16{fill:#EEA886;}
	.st17{fill:#D9D3C8;}
	.st18{fill:#222538;}
	.st19{fill:#FFC955;}
	.st20{fill:#A77860;}
	.st21{fill:#C29941;}
	.st22{fill:#FFFFFF;}
	.st23{filter:url(#Adobe_OpacityMaskFilter);}
	.st24{filter:url(#Adobe_OpacityMaskFilter_1_);}
	.st25{mask:url(#SVGID_7_);fill:url(#SVGID_8_);}
	.st26{fill:url(#SVGID_9_);}
	.st27{filter:url(#Adobe_OpacityMaskFilter_2_);}
	.st28{filter:url(#Adobe_OpacityMaskFilter_3_);}
	.st29{mask:url(#SVGID_10_);fill:url(#SVGID_11_);}
	.st30{fill:url(#SVGID_12_);}
	.st31{filter:url(#Adobe_OpacityMaskFilter_4_);}
	.st32{filter:url(#Adobe_OpacityMaskFilter_5_);}
	.st33{mask:url(#SVGID_13_);fill:url(#SVGID_14_);}
	.st34{fill:url(#SVGID_15_);}
	.st35{filter:url(#Adobe_OpacityMaskFilter_6_);}
	.st36{filter:url(#Adobe_OpacityMaskFilter_7_);}
	.st37{mask:url(#SVGID_16_);fill:url(#SVGID_17_);}
	.st38{fill:url(#SVGID_18_);}
	.st39{fill:#C5C6CF;}
	.st40{fill:#E2E3ED;}
	.st41{fill:#EEA987;}
	.st42{fill:#E6D3CD;}
	.st43{fill:#3C4145;}
	.st44{fill:#163342;}
	.st45{fill:#EFAA88;}
	.st46{opacity:0.43;fill:url(#SVGID_19_);}
	.st47{opacity:0.76;}
	.st48{fill:url(#SVGID_20_);}
	.st49{fill:url(#SVGID_21_);}
	.st50{fill:url(#SVGID_22_);}
	.st51{fill:url(#SVGID_23_);}
	.st52{fill:url(#SVGID_24_);}
	.st53{fill:#007BDE;}
	.st54{fill:url(#SVGID_25_);}
	.st55{fill:url(#SVGID_26_);}
	.st56{fill:url(#SVGID_27_);}
	.st57{fill:url(#SVGID_28_);}
	.st58{fill:#DB9C7C;}
	.st59{fill:#4C5385;}
	.st60{fill:#EAD8CF;}
	.st61{fill:#DA9B5B;}
	.st62{fill:#424773;}
	.st63{fill:#292C47;}
	.st64{fill:#353A3D;}
	.st65{fill:#E2D2CA;}
	.st66{fill:#323657;}
	.st67{fill:#81807E;}
	.st68{fill:#2D3133;}
	.st69{fill:#DECBC4;}
	.st70{fill:#495055;}
	.st71{fill:#51565C;}
	.st72{fill:#F5E2D9;}
	.st73{fill:#AD9F99;}
	.st74{fill:#69737A;}
	.st75{fill:#D9C9C2;}
	.st76{fill:#898FBF;}
	.st77{fill:#152B3D;}
	.st78{fill:#FFC05C;}
	.st79{fill:#254380;}
	.st80{fill:#E55353;}
</style>
<g>
	<g>
		<g>
			<rect x="1322.1" y="1030.3" class="st0" width="5.5" height="580.7"/>
		</g>
		<g>
			<rect x="1715.7" y="1030.3" class="st0" width="5.5" height="580.7"/>
		</g>
		<g>
			<rect x="2109.2" y="1030.3" class="st0" width="5.5" height="580.7"/>
		</g>
		<rect x="931.4" y="958.7" class="st1" width="94.3" height="15.1"/>
		<rect x="931.4" y="986.7" class="st1" width="133.7" height="15.1"/>
		<rect x="1320.7" y="958.7" class="st1" width="110.7" height="15.1"/>
		<rect x="1320.7" y="986.7" class="st1" width="70.8" height="15.1"/>
		<rect x="1721.2" y="958.7" class="st1" width="68.6" height="15.1"/>
		<rect x="1721.2" y="986.7" class="st1" width="79.9" height="15.1"/>
		<rect x="2114.7" y="958.7" class="st1" width="99.9" height="15.1"/>
		<rect x="2114.7" y="986.7" class="st1" width="79.9" height="15.1"/>
		<rect x="1324.9" y="1645.3" class="st2" width="62.6" height="20.2"/>
		<rect x="1721.2" y="1645.3" class="st2" width="62.6" height="20.2"/>
		<rect x="2114.7" y="1645.3" class="st2" width="62.6" height="20.2"/>
		<rect x="2508.2" y="1645.3" class="st2" width="62.6" height="20.2"/>
		<g class="st3">
			<linearGradient id="SVGID_1_" gradientUnits="userSpaceOnUse" x1="931.3872" y1="1309.5962" x2="2505.4766" y2="1309.5962">
				<stop  offset="0" style="stop-color:#FFC05C"/>
				<stop  offset="1" style="stop-color:#FF3857"/>
			</linearGradient>
			<path class="st4" d="M2369.1,1438.4c-122.7,0-229.4-53.1-340.7-108.4c-137.3-68.3-279.3-138.9-468.5-119.6
				c-120.8,12.3-196.6,61.5-263.5,105c-60.6,39.3-117.8,73.9-195.4,76.8c-125.4,4.8-168.8-48.7-169.6-52V1306l0,0l0,0
				c0.2,0.6,27.5,60.6,169.4,59.9c69.9-0.4,121.5-33.8,181.2-72.6c69.4-45,148.1-96.1,275.2-109.1
				c196.8-20.1,342.3,52.2,482.9,122.2c147.2,73.2,287.7,141.8,465.3,82.3v28.2C2454.8,1433.9,2414.4,1438.4,2369.1,1438.4z"/>
		</g>
		<g class="st5">
			<linearGradient id="SVGID_2_" gradientUnits="userSpaceOnUse" x1="931.3872" y1="1267.0016" x2="2506.3076" y2="1267.0016">
				<stop  offset="0" style="stop-color:#40D5E6"/>
				<stop  offset="1" style="stop-color:#5577FF"/>
			</linearGradient>
			<path class="st6" d="M1632.3,1431.8c-90.6,0-162.5-60.9-232.8-120.6c-53.3-45.2-108.7-91.5-172.6-114.3
				c-195-69.6-294.7,57.5-295.6,58.6v-38.7c1.1-1.3,18.8-24.4,70.3-46.5c46.9-20.1,125.5-36.1,233.9,1.6
				c68.7,23.9,125.8,72.3,181,119.1c111.9,94.9,208.6,176.9,376.5,48.5c127.2-97.2,247-189.9,365-223.8
				c115.4-33.1,235.6-8.9,348.2,103.7l-0.8,35.1c-239.1-240.2-442.8-88-696.3,105.9C1742,1411.9,1684.1,1431.8,1632.3,1431.8z"/>
		</g>
	</g>
	<g>
		<linearGradient id="SVGID_3_" gradientUnits="userSpaceOnUse" x1="1820.9473" y1="767.9711" x2="2382.3496" y2="767.9711">
			<stop  offset="0" style="stop-color:#8FD6FF"/>
			<stop  offset="1" style="stop-color:#BFEBFE"/>
		</linearGradient>
		<polygon class="st7" points="1824.9,891.5 1820.9,886.9 1887.2,830.4 1927.5,830.4 2018.8,752.6 2076,801.2 2118.1,801.2 
			2139.4,819.4 2205.6,763 2239.1,763 2378.4,644.4 2382.3,649.1 2241.4,769.2 2207.8,769.2 2139.4,827.5 2115.8,807.4 
			2073.7,807.4 2018.8,760.7 1929.8,836.5 1889.5,836.5 		"/>
	</g>
	<g>
		<linearGradient id="SVGID_4_" gradientUnits="userSpaceOnUse" x1="1811.6094" y1="695.889" x2="2371.1953" y2="695.889">
			<stop  offset="0" style="stop-color:#8FD6FF"/>
			<stop  offset="1" style="stop-color:#BFEBFE"/>
		</linearGradient>
		<polygon class="st8" points="1834.5,813.5 1811.6,813.5 1811.6,807.4 1832,807.4 1866.4,773 1891.4,798 1951.1,738.2 
			1969.5,756.6 2030.1,696 2066.4,732.3 2107.8,732.3 2171.7,668.4 2226.8,668.4 2267.5,627.7 2317.4,627.7 2366.8,578.2 
			2371.2,582.6 2319.9,633.9 2270.1,633.9 2229.3,674.6 2174.2,674.6 2110.3,738.5 2063.9,738.5 2030.1,704.7 1969.5,765.3 
			1951.1,746.9 1891.4,806.7 1866.4,781.7 		"/>
	</g>
	<linearGradient id="SVGID_5_" gradientUnits="userSpaceOnUse" x1="1915.6552" y1="518.1862" x2="1599.2404" y2="1419.6718">
		<stop  offset="0" style="stop-color:#C6CBCF"/>
		<stop  offset="1" style="stop-color:#F8F1FE"/>
	</linearGradient>
	<path class="st9" d="M2446.3,827.5c0-0.1-0.1-0.3-0.1-0.4c-58.9-205.5-206-381.1-409.1-471.5h0c-34.8-15.6-71.3-28.6-109.2-38.8
		c-94.9-25.5-190.4-31.3-282.3-19.9c-0.1,0-0.2,0-0.2,0l-0.1,0c-61.8,7.7-122,23.2-179.2,45.8c-0.1,0-0.2,0.1-0.3,0.1
		c-210.1,82.6-379.6,260.5-442.8,495.2c-106,394,127.3,799.2,521.2,905.1c202.2,54.4,407.4,19.4,573.6-80.9l31,43.1l146.2-105.3
		l-35.3-49c88.1-88.3,154.9-200.1,189.6-329.2C2485.3,1087.7,2482,952.1,2446.3,827.5z M1905.6,1502.3
		c-261.1,93.6-548.7-42.2-642.2-303.3c-91.8-256.3,37.3-538,288.9-636.8c4.8-1.9,9.6-3.7,14.4-5.4c35.6-12.8,71.7-21.3,107.8-25.8
		c92.4-11.5,184.4,3.3,266.5,40c120.6,53.9,219.9,155,268,289.1c3.8,10.6,7.2,21.2,10.2,31.8
		C2291.3,1144.1,2156.1,1412.5,1905.6,1502.3z"/>
	<g>
		<path class="st10" d="M2591.8,785.7l-145.6,41.5l-227.1,64.7c-3-10.6-6.5-21.2-10.2-31.8c-48.1-134.2-147.4-235.3-268-289.1
			l96.1-215.3h0l10.1-22.7l51.7-115.7C2343.7,326.2,2520.9,538,2591.8,785.7z"/>
	</g>
	<g>
		<path class="st11" d="M2047.2,333l-10.1,22.7l-96.2,215.3c-82.1-36.7-174-51.5-266.5-40l-29-234l-3-24.5
			c95-11.8,193.8-5.8,291.9,20.6C1973.5,303.5,2011.3,316.9,2047.2,333z"/>
	</g>
	<g>
		<path class="st12" d="M1674.5,531c-36,4.5-72.2,13-107.8,25.8c-4.9,1.7-9.7,3.6-14.4,5.4l-86.3-219.4l-26.1-66.4
			c62.8-24.9,128.9-41.9,196.8-50.3l0.1,0l5.7,46.4l3,24.5L1674.5,531z"/>
	</g>
	<linearGradient id="SVGID_6_" gradientUnits="userSpaceOnUse" x1="2075.9644" y1="1442.3901" x2="2649.8433" y2="2254.8491">
		<stop  offset="0" style="stop-color:#C6CBCF"/>
		<stop  offset="1" style="stop-color:#F8F1FE"/>
	</linearGradient>
	<polygon class="st13" points="2617.3,2000 2326.2,2000 2123.9,1719 2218.8,1650.7 2315.6,1581 2363.8,1648 	"/>
	<g>
		<g>
			<g>
				<path class="st14" d="M1578.6,175.1c0,0-10.5-19.3-16.5-26.2c-6-6.9-25.8-12.1-23.1-21c2.7-8.9,29.3-5,36.6,3.7
					c7.3,8.7,29.6,11.7,30.4,15.4c0.8,3.7-7.8,23.7-12.5,26.9C1588.7,177.2,1578.6,175.1,1578.6,175.1z"/>
				<path class="st15" d="M1534,191.4c0,0-17.1-13.5-25.3-17.5c-8.2-4-28.5-0.9-29.5-10.1c-1-9.2,24.9-16.2,35-11.2
					c10.2,5,31.9-1,34,2.1c2.2,3.1,2.3,24.8-0.8,29.7C1544.3,189.3,1534,191.4,1534,191.4z"/>
				<path class="st16" d="M1572,226.7c0,0,7.5-51,7.1-59.9c-0.1-2.5,15.3-1.6,14.6,3.3c-1.6,10.6,5.6,51.6,4.3,59.1
					C1596.8,236.7,1571.3,231.4,1572,226.7z"/>
				<path class="st16" d="M1548.6,241.3c0,0-14-49.5-17.2-57.8c-1.4-3.7,12.8-9.3,14.7-2.8c3,10.3,25.6,45.1,27.4,52.5
					C1575.3,240.6,1549.9,245.9,1548.6,241.3z"/>
				<path class="st17" d="M1558.3,275.7c0,0-15-50.6-17.3-56l23.7-14.6c0,0,11,32.3,12.5,40.4
					C1578.7,253.6,1558.3,275.7,1558.3,275.7z"/>
				<path class="st18" d="M1977.4,142c0,0-22.9,5.8-33.7,23.1c-10.9,17.3-20.3,37.2-40.7,46.2c-20.4,9-20.6,32.3-19,35.9
					c1.6,3.6,64.4,74.2,78.1,76.9c13.7,2.7,39.4,0.8,36.6-17.3c-2.7-18.1-29.6-57.2-14.5-76.8c15.1-19.7,18.9-37.8,18.9-37.8
					L1977.4,142z"/>
				<path class="st16" d="M1973.4,226.4c0,0-0.7-0.2-1.8-0.3c-1.3-0.1-3.2-0.1-5.3,0.6c-0.5,0.2-1.3,0.5-2.1,1
					c-5.4,3.2-18.3,11.9-20,12.1c-2,0.2-0.3-29.8-0.3-29.8s6.8-12.1,7.7-20.1C1952.4,182,1973.4,226.4,1973.4,226.4z"/>
				<path class="st17" d="M1812.6,257.7c0,0-25.1-17.6-54.6-12.1c-29.4,5.5-32.6,19.3-42.7,19.9c-10.1,0.6-43.9-2.3-71.6,5.8
					c-27.7,8.1-51.1,9-54.3,6.6c-3.2-2.3,17.3-48.5,17.3-54.9l-34.4-9c0,0-9.8,41-13.7,50.2c-4.1,9.9-12,28.5-0.8,44.7
					c11.3,16.2,42.7,8.9,61.8,12.1c19.1,3.3,104.3,1.2,119.2,0.4c16.2-0.9,65-3.2,65-3.2L1812.6,257.7z"/>
				<path class="st16" d="M2018.9,166.5c0,0,1.6,24.8-3.9,32.3c-2.2,3-3.7,4.6-4.7,5.5c-1.4,1.2-2.5,2.8-3.1,4.5
					c-1.7,4.8-2.8,11.5-4.1,12.9c-1.5,1.6-5.8-2.4-7.3-2.4c-1.6,0-16.7,13-20.3,10.4c-3.6-2.7-25.7-25-23.8-40.4
					c1.9-15.3,8.6-38.2,33.4-38.1C2009.9,151.2,2017,160.3,2018.9,166.5z"/>
				<path class="st19" d="M1943.8,284.9c-0.5,1-9.6,15.6-19.6,24.1c-4.2,3.5-8.5,6-12.3,6c-1.2,0-2.3,0-3.5,0
					c-11.5,0.3-20.3,2.1-35.8,2.8c-16.1,0.8-55.1-1.4-56.3-1.4c-1.2,0-12.4,2-12.4,2c-4-4.9,6.6-60.3,8.7-60.6
					c2-0.3,15,4.6,27.4,2.6c12.4-2,17.3-3.2,35.8-24.8c18.5-21.7,37-27.1,44.8-25.4c7.8,1.7,23.3,0,23.3,0
					S1944.5,283.4,1943.8,284.9z"/>
				<path class="st18" d="M2008.4,184.2c0,0,4.6,12,7.1,13.6c0,0,8.9-9.4,3.2-32.7c-5.7-23.3-27.4-25.5-41.3-23.1
					c-17.4,2.9-34.9,61.8-34,67.5c0.9,5.7,20.4-30.4,37.4-27.5C1997.9,184.9,1998,185.8,2008.4,184.2z"/>
				<path class="st20" d="M1971.6,226.1c-1.3-0.1-3.2,0-5.4,0.7c-0.5,0.2-1.3,0.4-2.1,0.9c-4-6.2-7.7-21-7.8-21.5
					C1959,211.9,1971.6,226.1,1971.6,226.1z"/>
				<path class="st21" d="M1924.2,308.9c-4.2,3.5-8.5,6-12.3,6c-1.2,0-2.3,0-3.5,0l5.7-46L1924.2,308.9z"/>
				<path class="st16" d="M2014.1,388.1l-11.1,10.1c-9.6-5.1-33.5-22.4-38.1-26.3c-4.8-4.1-37.1-31.1-41.5-37.2
					c-4.5-6.1-10.1-69.7-9.5-72.6c0.6-2.9,28-4.3,31.1,2.4c0,0,1.4,36.2,2.2,42.3c0.7,6.1,3,11.5,7.2,16.6
					c5.8,7.1,18,23.5,29.9,36.7C1987,363.2,2010.4,384.9,2014.1,388.1z"/>
				<path class="st19" d="M1947.2,265.2c0,0,1.7-48.2-14-47.6c-19.8,0.8-22.8,25-20.1,51.4C1913.1,269,1942.8,269.3,1947.2,265.2z"
					/>
				<path class="st16" d="M2008.7,383.3c0,0,1.5,2.3,3.6,3c3.7,1.2,9.2-1.2,11.8,3.7c2.7,4.8-10.3,16.9-13.8,17.7
					c-3.5,0.7-9.1-4.7-13.5-15.4C1992.5,381.6,2008.7,383.3,2008.7,383.3z"/>
				<path class="st16" d="M2023,388.6c0,0,6.6,5,13.3,11.5c5.9,5.7,11.9,13.2,10.4,14.6c-2.1,1.9-6.1-4.5-12.3-9.8
					c-5.7-4.8-5.4-3-5.4-3s-0.1-0.5,5.2,5.9c5.6,6.9,11.4,15.2,9.7,16.3c-1.1,0.7-1.1,0.9-3.6-1.3c1.1,1.6,0.9,2.1,0.3,2.6
					c-3.1,2.6-13-6.3-16.9-9.9c3,2.8,4.9,5.1,1.8,5.4c-3.5,0.4-16.8-12.9-22-17.2C1997.9,399.1,2023,388.6,2023,388.6z"/>
			</g>
			<path class="st0" d="M1823.8,259.9c0,0-5.3,38-2.7,56.6c0,0,2.8,2.1,8.3,0.4c0,0,1.4-41.4,4.4-56.1
				C1833.9,260.8,1832.2,259.5,1823.8,259.9z"/>
		</g>
		<g>
			<rect x="1825.1" class="st0" width="4.1" height="288.7"/>
		</g>
	</g>
	<g>
		
			<rect x="2465.9" y="1495.1" transform="matrix(-1 -1.224647e-16 1.224647e-16 -1 5011.332 2995.7881)" class="st22" width="79.5" height="5.6"/>
		
			<rect x="2465.9" y="1505.6" transform="matrix(-1 -1.224647e-16 1.224647e-16 -1 5011.332 3034.6328)" class="st22" width="79.5" height="23.4"/>
		
			<rect x="2428.6" y="1536.9" transform="matrix(-1 -1.224647e-16 1.224647e-16 -1 4904.0898 3077.2998)" class="st22" width="46.9" height="3.5"/>
		
			<rect x="2428.6" y="1541.9" transform="matrix(-1 -1.224647e-16 1.224647e-16 -1 4904.0898 3093.3398)" class="st22" width="46.9" height="9.5"/>
		
			<rect x="2558.4" y="1465.1" transform="matrix(-1 -1.224647e-16 1.224647e-16 -1 5120.3975 2995.7861)" class="st22" width="3.5" height="65.6"/>
	</g>
	<defs>
		<filter id="Adobe_OpacityMaskFilter" filterUnits="userSpaceOnUse" x="378.5" y="1021.4" width="99.8" height="48.5">
			<feFlood  style="flood-color:white;flood-opacity:1" result="back"/>
			<feBlend  in="SourceGraphic" in2="back" mode="normal"/>
		</filter>
	</defs>
	<mask maskUnits="userSpaceOnUse" x="378.5" y="1021.4" width="99.8" height="48.5" id="SVGID_7_">
		<g class="st23">
			<defs>
				<filter id="Adobe_OpacityMaskFilter_1_" filterUnits="userSpaceOnUse" x="378.5" y="1021.4" width="99.8" height="48.5">
					<feFlood  style="flood-color:white;flood-opacity:1" result="back"/>
					<feBlend  in="SourceGraphic" in2="back" mode="normal"/>
				</filter>
			</defs>
			<mask maskUnits="userSpaceOnUse" x="378.5" y="1021.4" width="99.8" height="48.5" id="SVGID_7_">
				<g class="st24">
				</g>
			</mask>
			<linearGradient id="SVGID_8_" gradientUnits="userSpaceOnUse" x1="423.4662" y1="808.3147" x2="431.8707" y2="1214.5201">
				<stop  offset="0" style="stop-color:#FFFFFF"/>
				<stop  offset="1" style="stop-color:#000000"/>
			</linearGradient>
			<polygon class="st25" points="401.9,1069.9 478.3,1069.9 454.9,1021.4 378.5,1021.4 			"/>
		</g>
	</mask>
	<linearGradient id="SVGID_9_" gradientUnits="userSpaceOnUse" x1="423.4662" y1="808.3147" x2="431.8707" y2="1214.5201">
		<stop  offset="0" style="stop-color:#40D5E6"/>
		<stop  offset="1" style="stop-color:#5577FF"/>
	</linearGradient>
	<polygon class="st26" points="401.9,1069.9 478.3,1069.9 454.9,1021.4 378.5,1021.4 	"/>
	<defs>
		<filter id="Adobe_OpacityMaskFilter_2_" filterUnits="userSpaceOnUse" x="342.7" y="1021.4" width="41.6" height="48.5">
			<feFlood  style="flood-color:white;flood-opacity:1" result="back"/>
			<feBlend  in="SourceGraphic" in2="back" mode="normal"/>
		</filter>
	</defs>
	<mask maskUnits="userSpaceOnUse" x="342.7" y="1021.4" width="41.6" height="48.5" id="SVGID_10_">
		<g class="st27">
			<defs>
				<filter id="Adobe_OpacityMaskFilter_3_" filterUnits="userSpaceOnUse" x="342.7" y="1021.4" width="41.6" height="48.5">
					<feFlood  style="flood-color:white;flood-opacity:1" result="back"/>
					<feBlend  in="SourceGraphic" in2="back" mode="normal"/>
				</filter>
			</defs>
			<mask maskUnits="userSpaceOnUse" x="342.7" y="1021.4" width="41.6" height="48.5" id="SVGID_10_">
				<g class="st28">
				</g>
			</mask>
			<linearGradient id="SVGID_11_" gradientUnits="userSpaceOnUse" x1="358.6463" y1="809.6559" x2="367.0508" y2="1215.8608">
				<stop  offset="0" style="stop-color:#FFFFFF"/>
				<stop  offset="1" style="stop-color:#000000"/>
			</linearGradient>
			<polygon class="st29" points="366.1,1069.9 384.3,1069.9 360.9,1021.4 342.7,1021.4 			"/>
		</g>
	</mask>
	<linearGradient id="SVGID_12_" gradientUnits="userSpaceOnUse" x1="358.6463" y1="809.6559" x2="367.0508" y2="1215.8608">
		<stop  offset="0" style="stop-color:#40D5E6"/>
		<stop  offset="1" style="stop-color:#5577FF"/>
	</linearGradient>
	<polygon class="st30" points="366.1,1069.9 384.3,1069.9 360.9,1021.4 342.7,1021.4 	"/>
	<defs>
		<filter id="Adobe_OpacityMaskFilter_4_" filterUnits="userSpaceOnUse" x="2419.5" y="164.9" width="84.7" height="32.7">
			<feFlood  style="flood-color:white;flood-opacity:1" result="back"/>
			<feBlend  in="SourceGraphic" in2="back" mode="normal"/>
		</filter>
	</defs>
	<mask maskUnits="userSpaceOnUse" x="2419.5" y="164.9" width="84.7" height="32.7" id="SVGID_13_">
		<g class="st31">
			<defs>
				<filter id="Adobe_OpacityMaskFilter_5_" filterUnits="userSpaceOnUse" x="2419.5" y="164.9" width="84.7" height="32.7">
					<feFlood  style="flood-color:white;flood-opacity:1" result="back"/>
					<feBlend  in="SourceGraphic" in2="back" mode="normal"/>
				</filter>
			</defs>
			<mask maskUnits="userSpaceOnUse" x="2419.5" y="164.9" width="84.7" height="32.7" id="SVGID_13_">
				<g class="st32">
				</g>
			</mask>
			<linearGradient id="SVGID_14_" gradientUnits="userSpaceOnUse" x1="2508.5532" y1="6.8097" x2="2411.092" y2="371.3873">
				<stop  offset="0" style="stop-color:#FFFFFF"/>
				<stop  offset="1" style="stop-color:#000000"/>
			</linearGradient>
			<polygon class="st33" points="2419.5,197.6 2504.3,197.6 2504.3,164.9 2419.5,164.9 			"/>
		</g>
	</mask>
	<linearGradient id="SVGID_15_" gradientUnits="userSpaceOnUse" x1="2508.5532" y1="6.8097" x2="2411.092" y2="371.3873">
		<stop  offset="0" style="stop-color:#40D5E6"/>
		<stop  offset="1" style="stop-color:#5577FF"/>
	</linearGradient>
	<polygon class="st34" points="2419.5,197.6 2504.3,197.6 2504.3,164.9 2419.5,164.9 	"/>
	<defs>
		<filter id="Adobe_OpacityMaskFilter_6_" filterUnits="userSpaceOnUse" x="2419.5" y="149.7" width="84.7" height="6.1">
			<feFlood  style="flood-color:white;flood-opacity:1" result="back"/>
			<feBlend  in="SourceGraphic" in2="back" mode="normal"/>
		</filter>
	</defs>
	<mask maskUnits="userSpaceOnUse" x="2419.5" y="149.7" width="84.7" height="6.1" id="SVGID_16_">
		<g class="st35">
			<defs>
				<filter id="Adobe_OpacityMaskFilter_7_" filterUnits="userSpaceOnUse" x="2419.5" y="149.7" width="84.7" height="6.1">
					<feFlood  style="flood-color:white;flood-opacity:1" result="back"/>
					<feBlend  in="SourceGraphic" in2="back" mode="normal"/>
				</filter>
			</defs>
			<mask maskUnits="userSpaceOnUse" x="2419.5" y="149.7" width="84.7" height="6.1" id="SVGID_16_">
				<g class="st36">
				</g>
			</mask>
			<linearGradient id="SVGID_17_" gradientUnits="userSpaceOnUse" x1="2494.2668" y1="31.7392" x2="2418.7842" y2="314.0999">
				<stop  offset="0" style="stop-color:#FFFFFF"/>
				<stop  offset="1" style="stop-color:#000000"/>
			</linearGradient>
			<polygon class="st37" points="2419.5,155.8 2504.3,155.8 2504.3,149.7 2419.5,149.7 			"/>
		</g>
	</mask>
	<linearGradient id="SVGID_18_" gradientUnits="userSpaceOnUse" x1="2494.2668" y1="31.7392" x2="2418.7842" y2="314.0999">
		<stop  offset="0" style="stop-color:#40D5E6"/>
		<stop  offset="1" style="stop-color:#5577FF"/>
	</linearGradient>
	<polygon class="st38" points="2419.5,155.8 2504.3,155.8 2504.3,149.7 2419.5,149.7 	"/>
	<g>
		<polygon class="st39" points="2404.1,1363.3 2727.1,1342.6 2728.8,1531.4 2438.2,1531.4 		"/>
		<polygon class="st40" points="2418.1,1345.7 2727.1,1342.6 2728.8,1531.4 2438.2,1531.4 		"/>
		<g>
			<path class="st41" d="M2413.2,1125.9c0,0,7.3,8.1,10.2,4.5c2.9-3.6,6.2-8.6,6.2-8.6L2413.2,1125.9z"/>
			<path class="st41" d="M2398.7,1048.7l9.5,43.9c-2.9-3.6-8-9.3-9.7-7.6c-2.4,2.4,5.5,14.4,6.9,19.6c1.2,4.7,2.9,12.1,4.9,16.5
				l3.6,7.2l15.8-6.5c0,0-0.7-31.3-1.3-38.4c-1-11.5-23-36.3-25.2-36.6C2399.2,1046.4,2398.7,1048.7,2398.7,1048.7z"/>
		</g>
		<path class="st42" d="M2722.2,1880.4c0,0,4.4,10.7,8.2,15c3.7,4.2,18.1,11.8,18.2,24.5c0.1,13.7-24.2,9.9-33.7,9.4
			c-9.5-0.5-10.2-7.8-14.2-15.6c-4-7.7-8-6.4-8.8-12.7c-0.7-6.2,3.1-20.2,3.1-20.2L2722.2,1880.4z"/>
		<g>
			<path class="st42" d="M2498.5,1882.8c0,0-13.2,13.9-26.6,16.8c-13.4,2.9-22.8,6.6-22.9,14.6s38.6,13.2,54,5.2
				c22.9-12,25.3-8.4,27.8-14.4c2.5-6-3.1-22-2.9-23.9C2528,1878.8,2498.5,1882.8,2498.5,1882.8z"/>
		</g>
		<g>
			<path class="st43" d="M2533.7,1481.8c0,0-13.9,100.9-19.6,135c-6.6,39.9-8.9,72.8-10.7,93.5c-2.3,26-6.8,162.5-8.4,170.1
				c-1.6,7.6,36.3,3.8,36.3,3.8s27.5-177,34.5-204.7c6.5-25.7,24.2-131.9,30.1-124.9s42.9,131.2,47.2,151.5
				c4.4,20.3,46.4,179.3,46.4,179.3s31.4,6.8,39.4,0.4c0,0-27.4-146-30.2-184.1c-1.1-14.5-9.7-173-34.2-237.1
				C2651.6,1430.7,2533.7,1481.8,2533.7,1481.8z"/>
		</g>
		<path class="st19" d="M2574.5,1239.9c0,0-36.8,7.6-41.1,11.5c-4.7,4.1-13.1,44.4-13.6,55.6c-0.5,11.2,4.4,58.1,9.2,75.5
			c4.7,17.4,3.7,108.5,1.5,122.8c0,0,73.7,14.4,146.5,5c0,0-12.6-79.1-9.7-103c3.7-30.6,12.7-101.2,12.7-101.2s-9.7-47.5-16.2-53
			s-51.5-14.4-51.5-14.4L2574.5,1239.9z"/>
		<path class="st16" d="M2589.7,1126.2c0,0-44.2-16.4-41.4,42.4c2.8,58.8,13.1,64.7,42.2,56.5c29.1-8.2,31.5-45.3,35.3-63.1
			C2629.5,1144.2,2604.1,1128.8,2589.7,1126.2z"/>
		<path class="st16" d="M2567.2,1249.2c0,0,23,18.6,45.1-10.5c0,0-1-23.7,5.8-45.7s-46.3,29.5-46.3,29.5c0.6,0.4,0.7,2.6,0.3,5.7
			c-0.3,2.6-0.8,5.8-1.7,9.1C2568.5,1244.5,2569,1243.2,2567.2,1249.2z"/>
		<path class="st44" d="M2619.6,1191.1c0,0,0.1-15.7-6.4-17.1c-6.5-1.4-9.9,7.6-9.9,7.6l-5.3-0.3c0,0,4.7-15.9-1.5-19.6
			c-6.2-3.6-43.4-0.4-48.1-5.8s2.1-37.2,12.3-40.3c10.2-3.1,37.9-9.5,55.5,6.2c0,0,15.8,0.1,15.7,19
			C2631.9,1153.5,2624.9,1182.6,2619.6,1191.1z"/>
		<path class="st20" d="M2570.4,1237.2c34.3-5.8,39.4-25.3,39.5-25.6c-13.3,17.2-37.8,16.4-37.8,16.4
			C2571.9,1230.6,2571.3,1233.9,2570.4,1237.2z"/>
		<path class="st16" d="M2605.8,1167.3c2-5.2,13-4.5,11.9,3.7c-1.1,8.2-10.2,20.8-13.9,18.5
			C2600.1,1187.1,2603.1,1174.5,2605.8,1167.3z"/>
		<path class="st16" d="M2624.2,1241.2c0,0-20.7,41.9-51.2,38.5c-30.5-3.4-12.8-32.6-9.9-37.3
			C2563.1,1242.4,2581.4,1230.6,2624.2,1241.2z"/>
		<g>
			<path class="st19" d="M2431.7,1207.3c-8.6-16.8-27.6-81.6-27.6-81.6l26.8-5.6c0,0,14.3,32.6,21.1,55.2c3.3,11,7.7,21.8,8.7,23.5
				s46.7,36.3,51.6,38.9c5,2.5,24.1,9.2,33.3,18.5c9.1,9.3,4.7,22,4.7,22c-19.4,24.9-55.2-7.5-55.2-7.5S2443.7,1230.8,2431.7,1207.3
				z"/>
		</g>
		<path class="st19" d="M2476.4,1255.3c0,0,42.3,46.2,43.8,63.3c1,12.2,8.7-36.8,8.7-36.8L2476.4,1255.3z"/>
		
			<rect x="2438.2" y="1331.7" transform="matrix(-1 -1.224647e-16 1.224647e-16 -1 5193.2344 2863.1133)" class="st10" width="316.8" height="199.6"/>
		<path class="st45" d="M2705.8,1541.4c0,0,1.5-3.7,1.4-5.6c0,0-0.5-3.5-0.7-6c-0.1-0.8-0.1-1.5-0.1-1.9c0.1-1.9,0.9-6-0.2-10.5
			c-1-4.6-6.3-20.3-6.3-20.3l-14.2,2.1l-12.4-1.7c0,0-9.2,26.9-8.8,31.3c0,0.4,0.1,0.8,0.2,1.2c0.8,3.7,2.9,6.1,3.5,7.9
			c0.2,0.7,3,7.4,5,8c2.9,0.9,5.2,0.3,6.8-1c0,0,5.7,1.5,9.3-0.1c0,0,5.2,1.6,9.1-1.8C2698.4,1543.1,2703.9,1544.1,2705.8,1541.4z"
			/>
		<path class="st19" d="M2643.6,1252c-4.8,1.9-9.9,13.5-6.1,36.4c4.1,24.5,12.2,35,15.4,40.8c3.3,5.7,23.4,44,23.3,49.6
			c-0.2,14.7,0.1,53.6-0.3,56.6c-0.8,5.1-4.1,63.7-4.1,63.7l31.1,7.5c0,0,6.1-66.1,8.9-86c1.1-8,3.5-30,0.7-51.9
			c-2.7-21.1-18-67.8-20-71.5C2690.5,1293.4,2675.4,1239.7,2643.6,1252z"/>
	</g>
	<linearGradient id="SVGID_19_" gradientUnits="userSpaceOnUse" x1="877.6416" y1="1335.9175" x2="877.6416" y2="3823.3828">
		<stop  offset="0" style="stop-color:#44607D"/>
		<stop  offset="1" style="stop-color:#F5F5F5"/>
	</linearGradient>
	<path class="st46" d="M1122.3,1666.3H633c-30.2,0-54.7-24.5-54.7-54.7v-599c0-30.2,24.5-54.7,54.7-54.7h489.3
		c30.2,0,54.7,24.5,54.7,54.7v599C1177,1641.8,1152.5,1666.3,1122.3,1666.3z"/>
	<g class="st47">
		<g>
			<g>
				<path class="st22" d="M792.5,1067.6c-13.1-36.5-48-59-84.8-57.8c-8.9,0.3-17.9,1.9-26.8,5.1c-26.8,9.6-46,30.9-53.9,56.1
					c-5.5,17.5-5.5,36.8,1.1,55.4c0.7,1.8,1.4,3.7,2.1,5.4c3.5,8,8.1,15.3,13.5,21.7c22.8,26.8,60.7,38.2,95.9,25.6
					C785.1,1162.9,808.7,1113,792.5,1067.6z M732.4,1158.6c-26.3,9.4-54.7,0.9-71.9-19.2c-4.1-4.8-7.5-10.3-10.1-16.3
					c-0.6-1.3-1.1-2.7-1.6-4.1c-5-13.9-5-28.4-0.9-41.5c5.9-18.9,20.3-34.9,40.4-42.1c6.6-2.4,13.4-3.6,20.1-3.8
					c27.6-0.8,53.8,16,63.5,43.4C784.1,1109,766.4,1146.4,732.4,1158.6z"/>
			</g>
		</g>
	</g>
	<linearGradient id="SVGID_20_" gradientUnits="userSpaceOnUse" x1="877.6416" y1="798.6088" x2="877.6416" y2="2542.7734">
		<stop  offset="0" style="stop-color:#626E7A"/>
		<stop  offset="1" style="stop-color:#F5F5F5"/>
	</linearGradient>
	<path class="st48" d="M1153.7,906.7H601.6c-12.9,0-23.3-10.4-23.3-23.3v-5.9c0-12.9,10.4-23.3,23.3-23.3h552.1
		c12.9,0,23.3,10.4,23.3,23.3v5.9C1177,896.3,1166.6,906.7,1153.7,906.7z"/>
	<g>
		<g>
			<g>
				<g>
					<g>
						<polygon class="st22" points="960.2,1328.9 1051.7,1334.1 1124.6,1233.5 1119.7,1230 1048.7,1327.8 957.6,1322.7 
							853.2,1441.8 743.8,1418.1 635.8,1520 640,1524.5 745.7,1424.7 855.4,1448.5 						"/>
					</g>
				</g>
			</g>
		</g>
		<g>
			<g>
				<g>
					<path class="st22" d="M870.2,1441.7c1.9,8.8-3.7,17.4-12.4,19.3s-17.4-3.7-19.3-12.4c-1.9-8.8,3.7-17.4,12.4-19.3
						C859.6,1427.4,868.3,1432.9,870.2,1441.7z"/>
				</g>
			</g>
		</g>
		<g>
			<g>
				<g>
					<path class="st22" d="M974.8,1323.4c1.9,8.8-3.7,17.4-12.4,19.3c-8.8,1.9-17.4-3.7-19.3-12.4c-1.9-8.8,3.7-17.4,12.4-19.3
						C964.2,1309.1,972.9,1314.6,974.8,1323.4z"/>
				</g>
			</g>
		</g>
		<g>
			<g>
				<g>
					<path class="st22" d="M1065.2,1327c1.9,8.8-3.7,17.4-12.4,19.3c-8.8,1.9-17.4-3.7-19.3-12.4c-1.9-8.8,3.7-17.4,12.4-19.3
						C1054.7,1312.7,1063.3,1318.3,1065.2,1327z"/>
				</g>
			</g>
		</g>
		<g>
			<g>
				<g>
					<path class="st22" d="M760.5,1419.5c1.9,8.8-3.7,17.4-12.4,19.3c-8.8,1.9-17.4-3.7-19.3-12.4c-1.9-8.8,3.7-17.4,12.4-19.3
						C750,1405.2,758.6,1410.7,760.5,1419.5z"/>
				</g>
			</g>
		</g>
	</g>
	<g>
		<rect x="728.4" y="1483.2" class="st22" width="66.5" height="12.8"/>
	</g>
	<g>
		<rect x="774.6" y="1351.9" class="st22" width="66.5" height="12.8"/>
	</g>
	<g>
		<rect x="912.5" y="1443.4" class="st22" width="66.5" height="12.8"/>
	</g>
	<g>
		<rect x="972.1" y="1263.7" class="st22" width="66.5" height="12.8"/>
	</g>
	<g>
		<rect x="1068.6" y="1370.8" class="st22" width="66.5" height="12.8"/>
	</g>
	<g>
		<g>
			<linearGradient id="SVGID_21_" gradientUnits="userSpaceOnUse" x1="850.6548" y1="1129.5498" x2="870.3491" y2="1129.5498">
				<stop  offset="0" style="stop-color:#D5E4FF"/>
				<stop  offset="1" style="stop-color:#EDFFFE"/>
			</linearGradient>
			<rect x="850.7" y="1074.8" class="st49" width="19.7" height="109.5"/>
		</g>
		<g>
			<linearGradient id="SVGID_22_" gradientUnits="userSpaceOnUse" x1="885.2329" y1="1114.9561" x2="904.9277" y2="1114.9561">
				<stop  offset="0" style="stop-color:#D5E4FF"/>
				<stop  offset="1" style="stop-color:#EDFFFE"/>
			</linearGradient>
			<rect x="885.2" y="1045.6" class="st50" width="19.7" height="138.7"/>
		</g>
		<g>
			<linearGradient id="SVGID_23_" gradientUnits="userSpaceOnUse" x1="921.5186" y1="1122.5908" x2="941.2139" y2="1122.5908">
				<stop  offset="0" style="stop-color:#D5E4FF"/>
				<stop  offset="1" style="stop-color:#EDFFFE"/>
			</linearGradient>
			<rect x="921.5" y="1060.9" class="st51" width="19.7" height="123.4"/>
		</g>
		<g>
			<linearGradient id="SVGID_24_" gradientUnits="userSpaceOnUse" x1="958.8013" y1="1140.3164" x2="978.4961" y2="1140.3164">
				<stop  offset="0" style="stop-color:#D5E4FF"/>
				<stop  offset="1" style="stop-color:#EDFFFE"/>
			</linearGradient>
			<rect x="958.8" y="1096.3" class="st52" width="19.7" height="87.9"/>
		</g>
		<g>
			<rect x="850.7" y="1114.9" class="st53" width="19.7" height="69.4"/>
		</g>
		<g>
			<rect x="885.2" y="1096.3" class="st53" width="19.7" height="87.9"/>
		</g>
		<g>
			<rect x="921.5" y="1106" class="st53" width="19.7" height="78.3"/>
		</g>
		<g>
			<rect x="958.8" y="1129.6" class="st53" width="19.7" height="54.7"/>
		</g>
	</g>
	<g>
		<g>
			<linearGradient id="SVGID_25_" gradientUnits="userSpaceOnUse" x1="996.7539" y1="1147.5645" x2="1016.4487" y2="1147.5645">
				<stop  offset="0" style="stop-color:#D5E4FF"/>
				<stop  offset="1" style="stop-color:#EDFFFE"/>
			</linearGradient>
			<rect x="996.8" y="1110.8" class="st54" width="19.7" height="73.4"/>
		</g>
		<g>
			<linearGradient id="SVGID_26_" gradientUnits="userSpaceOnUse" x1="1031.3325" y1="1120.5527" x2="1051.0273" y2="1120.5527">
				<stop  offset="0" style="stop-color:#D5E4FF"/>
				<stop  offset="1" style="stop-color:#EDFFFE"/>
			</linearGradient>
			<rect x="1031.3" y="1056.8" class="st55" width="19.7" height="127.5"/>
		</g>
		<g>
			<linearGradient id="SVGID_27_" gradientUnits="userSpaceOnUse" x1="1067.6182" y1="1132.2441" x2="1087.3125" y2="1132.2441">
				<stop  offset="0" style="stop-color:#D5E4FF"/>
				<stop  offset="1" style="stop-color:#EDFFFE"/>
			</linearGradient>
			<rect x="1067.6" y="1080.2" class="st56" width="19.7" height="104.1"/>
		</g>
		<g>
			<linearGradient id="SVGID_28_" gradientUnits="userSpaceOnUse" x1="1104.9004" y1="1103.8857" x2="1124.5952" y2="1103.8857">
				<stop  offset="0" style="stop-color:#D5E4FF"/>
				<stop  offset="1" style="stop-color:#EDFFFE"/>
			</linearGradient>
			<rect x="1104.9" y="1023.5" class="st57" width="19.7" height="160.8"/>
		</g>
		<g>
			<rect x="996.8" y="1145.2" class="st53" width="19.7" height="39.1"/>
		</g>
		<g>
			<rect x="1031.3" y="1126" class="st53" width="19.7" height="58.3"/>
		</g>
		<g>
			<rect x="1067.6" y="1132.2" class="st53" width="19.7" height="52"/>
		</g>
		<g>
			<rect x="1104.9" y="1064.8" class="st53" width="19.7" height="119.5"/>
		</g>
	</g>
	<g>
		<g>
			<g>
				<g>
					<path class="st16" d="M514.4,1475.5c0,0,3.1,5,3.4,9.1c0.3,3.2,3,8.1,4.2,10.8c1.2,2.7,5,14.8,5.1,17.9c0.1,1.3-2.8,9.4-2.4,12
						c0.4,2.6,1.9,7.7-0.4,8.1c-2.3,0.3-5-3.9-5-3.9s0.2,2.4-1.8,3.3c-3.8,1.8-5.9,0.2-5.9,0.2s-1.4,2.6-3.2,3
						c-3.9,0.8-5.8-0.8-5.8-0.8s-1.7,1.5-4.4,1.4c-3.5-0.1-4.9-3.1-4.9-3.1s-4.4,0.9-5.7-1.2c-1.3-2-1.1-4.2-1.6-6.1
						c-0.5-1.9-0.1-18.6,5.6-30.6c5.7-12-1.4-23.8-1.4-23.8L514.4,1475.5z"/>
				</g>
			</g>
		</g>
		<g>
			<g>
				<path class="st58" d="M519.9,1527.9c0,0,0.4-15-3.6-18.2c-4-3.2-4.4,2.2-4.4,2.2s0.5-5.4-3.8-6.1c-4.3-0.7-4.5,5.6-4.5,5.6
					s-0.7-4.1-5.2-3.3c-4.5,0.8-3.5,6.1-3.5,6.1s-4.3-5.2-7.1-0.2c-4.7,8.4-0.2,18.3-0.2,18.3s1.3,2.3,5.7,1.2c0,0,2.9,5.8,9.3,1.6
					c0,0,6.6,3.6,9-2.2C511.7,1533,519,1536.5,519.9,1527.9z"/>
			</g>
		</g>
		<path class="st59" d="M565.3,1259.3c0,0-25.7,85.6-34.4,117.2c-2.7,9.9-9.3,104.5-10.5,108.3s-33.8,9-33.8,9s3.9-118.4,4.3-124.8
			c0.4-6.5,36-138.6,46.3-143.3c7.8-3.5,11.8-0.6,21.6,6.6C572.7,1242.5,565.3,1259.3,565.3,1259.3z"/>
		<path class="st45" d="M883.9,1122.9c0,0-0.6,3.3-1.5,4.7c0,0-1.9,2.3-3.2,4c-0.4,0.5-0.7,1-0.9,1.4c-0.8,1.4-2.1,4.7-4.9,7.6
			c-2.8,2.8-13.7,11.9-13.7,11.9l-9.3-7.9l-9.7-4.4c0,0,5.4-23.6,7.7-26.6c0.2-0.3,0.5-0.6,0.7-0.8c2.2-2.3,4.8-3.1,6.1-4.2
			c0.5-0.4,5.5-4,7.2-3.5c2.5,0.6,3.9,2.1,4.5,3.7c0,0,4.8,1.5,6.6,4.3c0,0,4.5,1.2,5.8,5.4C879.3,1118.4,883.7,1120.2,883.9,1122.9
			z"/>
		<g>
			<g>
				<path class="st60" d="M702.6,1282.2l6.6-2.5c0,0-8.3-19.4-11.9-19c-4.2,0.5-9.4,1.9-9.4,1.9L702.6,1282.2z"/>
			</g>
		</g>
		<g>
			<g>
				<path class="st61" d="M704.1,1285.6c-0.8-0.6-14.1-26.1-14.1-26.1l-28.3,3.9l15.3,30.1L704.1,1285.6z"/>
			</g>
		</g>
		<g>
			<g>
				<path class="st62" d="M544.5,1844c0,0-2.3,16.3-2.6,18.7c-0.3,2.4-26.1-1.4-26.1-1.4l-2.1-19.4
					C513.7,1841.9,541.2,1841.7,544.5,1844z"/>
			</g>
		</g>
		<g>
			<g>
				<path class="st63" d="M542.1,1860.7c0,0,8.2,9.8,16.1,14.1c7.9,4.3,20.3,6,25,10.4c3.4,3.2,12.3,16.9-20.5,16.6
					c-32.8-0.3-48.6,1.9-52.1-3.3c-3.5-5.3,5.1-38.9,5.1-38.9S523.4,1862.3,542.1,1860.7z"/>
			</g>
		</g>
		<g>
			<g>
				<path class="st62" d="M729.1,1844c0,0-2.3,16.3-2.6,18.7c-0.3,2.4-26.1-1.4-26.1-1.4l-2.1-19.4
					C698.3,1841.9,725.8,1841.7,729.1,1844z"/>
			</g>
		</g>
		<g>
			<g>
				<path class="st63" d="M726.7,1860.7c0,0,8.2,9.8,16.1,14.1s36.9,7.8,41.6,12.2c3.4,3.2,9,16-37.2,14.8
					c-32.8-0.9-48.6,1.9-52.1-3.3c-3.5-5.3,5.1-38.9,5.1-38.9S707.5,1862.5,726.7,1860.7z"/>
			</g>
		</g>
		<g>
			<g>
				<path class="st63" d="M565.8,1426.3c0,0-24.2,38.5-22.4,73.2c1.8,34.8-8.8,72.7-12.4,109c-4.1,40.5-20.6,136.3-21.2,158
					c-0.6,21.7,2.6,90.8,2.6,90.8l33.2,0.8c0,0,27.9-167.6,35.1-184.7c7.2-17.1,43-139,44.3-152.7
					C626.1,1507.1,565.8,1426.3,565.8,1426.3z"/>
			</g>
		</g>
		<g>
			<g>
				<path class="st63" d="M693.2,1431.5c0,0,18.2,95.3,20.7,116.6c2.4,21.3,4,103,5.2,116.3c1.2,13.3,11.2,173.6,14.4,193.8h-42.5
					c0,0-32.6-116.8-32.6-172.1c0-55.3-25.2-120.2-41.4-156.7c-16.3-36.5-53.5-37.3-63.5-105C553.6,1424.3,679.7,1410,693.2,1431.5z
					"/>
			</g>
		</g>
		<g>
			<g>
				<path class="st16" d="M606.2,1102.9c0,0,32.5-12.1,47.5,12.6c15,24.7,13.5,74.3-2.8,80.3c-16.4,6.1-41,2.9-49.4-12.6
					c-8.4-15.5-16-37.9-15.6-52.8C586.2,1115.5,597.7,1107.2,606.2,1102.9z"/>
			</g>
		</g>
		<g>
			<g>
				<path class="st16" d="M647.3,1197c0,0-1.4,8.8,0.9,13.1c2.2,4.3-42.1,4.4-42.1,4.4s-3.6-23.5-10.4-43.4
					C588.8,1151.3,647.3,1197,647.3,1197z"/>
			</g>
		</g>
		<g>
			<g>
				<path class="st64" d="M595.7,1171.1c0,0,3.1,5,15.5,3.1c12.5-2,27.7-18.6,32.9-20.4c5.2-1.8,5.3-4.9,5.3-4.9l3.3,4.8l5.5,0.4
					c0,0-5.1-14.9,2.6-20.9c7.6-6.1-7.9-48.1-48-34.1c0,0-30.8,8.5-29.6,26C584.3,1142.5,588.8,1162.4,595.7,1171.1z"/>
			</g>
		</g>
		<g>
			<g>
				<path class="st65" d="M650.8,1209.5c0,0-0.1-8.3-3.9-9c-3.7-0.8-41.3-4.4-45.9-2.6v9.6C601,1207.5,609.9,1213,650.8,1209.5z"/>
			</g>
		</g>
		<g>
			<g>
				<path class="st16" d="M648.6,1142.6c-0.7-2.9-8.2-11.3-11-2.3c-2.9,9,4.3,21.1,8.3,20C649.9,1159.2,650.4,1150,648.6,1142.6z"/>
			</g>
		</g>
		<g>
			<g>
				<path class="st66" d="M799.9,1307.1C799.9,1307.1,799.9,1307.1,799.9,1307.1C800.1,1307.2,800.2,1307.2,799.9,1307.1z"/>
			</g>
		</g>
		<g>
			<g>
				<path class="st59" d="M713,1222c-25.8-3.4-62.1-12.5-62.1-12.5l-49.8-2c0,0-45.7,10.1-63.7,18.2c-1.7,0.8-1.7,40.8-6.4,51.3
					l14.9,31.5c0,0,8.6,62.4,10.4,90.1c0.8,12.7-17.8,119.4-17.8,119.4s19.9,5.9,53.9,9.6c34,3.7,118.9-1.4,119.4-5.4
					c0.5-4-16.4-149.4-17.2-157c-1.2-11.6,4-73,4-73c7.8-6.1,76.7-38.1,95.5-54.7c5-4.5,26.3-25.1,32.3-32.3
					c21.4-25.3,38.9-46.9,41-51.6c2.4-2.7-23.2-16.6-25.5-17.4c-2-0.7-30.9,36.7-42,48.8c-5,5.4-25.6,20.4-25.6,20.4
					S729.1,1223,713,1222z"/>
			</g>
		</g>
		<g>
			<g>
				<path class="st64" d="M596.9,1105.8c0,0-41.4,3.2-1.3,65.3L596.9,1105.8z"/>
			</g>
		</g>
	</g>
	<g>
		<g>
			<path class="st64" d="M1124.4,1853c0,0-8.7,13.1-21,15.9c-12.2,2.8-24.3,7.3-24.4,15s35.4,12.3,49.4,4.5
				c20.9-11.6,23-8.1,25.3-13.9c2.3-5.8-2.8-21.3-2.6-23.2C1151.4,1849.1,1124.4,1853,1124.4,1853z"/>
		</g>
		<g>
			<path class="st67" d="M1125.8,1846.6c0,0-1.6,6.3-1.4,6.4s27.6,3.4,26.7-1.7c-0.7-4.1-1.6-8.6-1.6-8.6L1125.8,1846.6z"/>
		</g>
		<g>
			<path class="st64" d="M1216.5,1852.2c0,0-6.2,12.5-16.9,16.7c-11.4,4.5-20.5,9.8-20.3,17.3c0.2,7.5,27.8,15.2,47.8,0.7
				c12.7-9.1,16.7-9.2,18.7-14.9s-3.5-20.7-3.5-22.5C1242.5,1847.3,1216.5,1852.2,1216.5,1852.2z"/>
		</g>
		<g>
			<path class="st67" d="M1216.1,1845.7c0,0,0.1,6.4,0.3,6.5c0.2,0.1,26.7,2.3,26-2.7c-0.5-3.9-2.6-8.7-2.6-8.7L1216.1,1845.7z"/>
		</g>
		<g>
			<path class="st68" d="M1119.3,1464.3c0,0-24.5,108.3-30.2,141.3c-4.8,28.1-8.6,57.3-6.3,77.6c2.8,25.1,38.3,155.1,36.9,162.5
				c-1.5,7.4,37.2,1.2,37.2,1.2s-27-145.1-21.6-172c4-20,39-152.8,44.4-146c5.4,6.8,12,125.4,16,145c4,19.7,16.2,175.2,16.2,175.2
				s27.3,4,34.6-2.1c0,0,3.3-132.8,0.8-169.7c-1-14.1,16.5-168.6-5.9-230.8C1229.4,1413.5,1119.3,1464.3,1119.3,1464.3z"/>
		</g>
		<g>
			<path class="st69" d="M1012.4,1365.9c17.5-2.5,72.5,21.9,77.5,20.1c3.4-1.3,11.5-27.6,17.3-47.5c3.4-11.8,6-21.3,6.4-22.1l0,0
				c-0.1,0.5-0.9,9.5,0.2,21.4c0.1,0.8,0.2,1.5,0.2,2.3c0,0.2,0.1,0.4,0.1,0.6c0.5,4.2,1.3,8.8,2.5,13.3c1.7,6.7,2.6,15.6,2.9,25v0
				c0,0.1,0,0.1,0,0.2c0,0.2,0,0.4,0,0.6c0,0.1,0,0.2,0,0.3c0.5,17-0.7,35.4-1.2,45.2c-0.8,15.2,4.2,22,4.4,22.2c0,0,0,0,0,0
				l5.3-0.7l3.8-0.5l0,0l5.1-0.7l20-2.8l7.2-1l1.7-0.2l12.6-1.8l35.7-5l3.9-0.5l1.6-0.2l13.4-1.9l6.1-0.9l0,0c0,0,5.2-36.6,5.6-56.4
				c0.4-18.2,10.1-55.1,11.7-61c0,0,0-0.1,0-0.1c0-0.1,0-0.1,0-0.2c0-0.1,0.1-0.2,0.1-0.3c0,0,0-0.1,0-0.1c0,0,0,0,0,0c0,0,0,0,0,0
				c0,0,0-0.1,0-0.1s29.1,30.6,34.8,43.9c1.7,4,7,15.1,13.7,28.5c4.6-8.7,7.5-14.8,7.5-16.4c0-0.2,0-0.4,0-0.6
				c-0.4-13.2-14.3-66.7-25.2-101.6c-8.5-17-15.8-30.8-18.1-32.5c-3.6-2.6-18.5-8.9-31.5-14.1c-0.4-0.2-0.9-0.3-1.3-0.5
				c-1.2-0.5-2.4-0.9-3.6-1.4c-0.6-0.2-1.2-0.4-1.7-0.7c-0.3-0.1-0.6-0.2-0.9-0.3c-0.3-0.1-0.5-0.2-0.7-0.3h0
				c-6.5-2.5-11.5-4.2-12.5-4.3c-0.2,0-0.4,0-0.8,0c-0.4,0-1,0-1.6,0.1c-8.1,0.5-32.1,2.7-39.9,3.5c-1.4,0.1-2.3,0.2-2.4,0.2
				c0,0,0,0,0,0s-3.7,1.7-9.2,4.2l0,0l-0.5,0.2c-3.4,1.5-7.2,3.6-11.3,5.8c-8,4.4-16.9,9.6-24.3,13.1c-7.2,3.4-17.1,8.2-18,8.9
				l-36.6,105.6l-63.5-11.6L1012.4,1365.9z"/>
		</g>
		<g>
			<path class="st70" d="M1122.7,1447.5c0,0-2.7,3.2-3.5,16.8c0,0,110.3-12.9,122-17.9c0,0,0.5-15-2-15.2
				C1236.5,1430.8,1122.7,1447.5,1122.7,1447.5z"/>
		</g>
		<g>
			<path class="st16" d="M1216.8,1208.9c-0.3,17.3-33.9,26.8-33.9,26.8s-14-17.6-10.7-19.3c1.3-0.7,1.8-3.3,2-6.2
				c0.2-2.8,0-5.9-0.2-7.9c-0.1-1.2-0.2-2-0.2-2s4.8-5.1,10.9-11.1c10.6-10.5,25.3-24,25.3-18.6c0,0.3,0,0.6-0.1,1
				C1207.4,1183.7,1216.8,1208.9,1216.8,1208.9z"/>
		</g>
		<g>
			<path class="st64" d="M1214,1433.8c0,0,2.4,15.2,2.6,19.1l5.1-1c0,0-1.4-16.1-2.2-18.8L1214,1433.8z"/>
		</g>
		<g>
			<path class="st64" d="M1131.9,1445.7c0,0-1.9,13.8-2,19l5.4-0.7c0,0,1.1-17.2,1.7-19L1131.9,1445.7z"/>
		</g>
		<g>
			<path class="st20" d="M1203.9,1183.5C1203.9,1183.5,1203.9,1183.5,1203.9,1183.5c-0.1,0.1-1.5,2.2-3.9,5.3
				c-5.1,6.5-14.8,17.1-25.7,21.4c0.2-2.8,0-5.9-0.2-7.9c-1.1,0-2.2-0.2-3.3-0.4c3-5.2,7.3-10.7,7.3-10.7l6.7-2L1203.9,1183.5z"/>
		</g>
		<g>
			<path class="st16" d="M1210.3,1170.8c-2.9,6.3-5.7,10.9-6.4,12.7c0,0,0,0,0,0c-0.5,1.2-1.9,3.1-3.9,5.3
				c-5.5,6-15.8,13.8-25.9,13.5c-1.1,0-2.2-0.2-3.3-0.4c-4.1-0.9-8.9-2.8-11.5-8c-20.9-40.9-5.8-74.4-5.8-74.4s57.2-16.2,66.1,1
				C1225.9,1132.7,1217.1,1156,1210.3,1170.8z"/>
		</g>
		<g>
			<path class="st44" d="M1153.4,1119.5c0,0-5.3-0.3-6.6-10.4c-1.3-9.9,1.3-12.7,1.3-12.7s23.6-9.9,32.1-11.2
				c8.5-1.3,29.3-2.5,34.2,3.1c0,0,11.9-2.8,15.1,17c5.1,31.3-17.5,61.6-17.5,61.6s0.2-20.4-4.3-23.1c-4.5-2.7-8.4,3.7-8.4,3.7
				l-9.2,1.7c0,0,14-30.2-2.8-31.3C1170.6,1116.7,1163.1,1121.3,1153.4,1119.5z"/>
		</g>
		<g>
			<path class="st16" d="M1199.6,1139.4c0.9-9,17.2-12.4,16.1-3c-1.1,9.4-9.1,18.5-12.8,18.2
				C1199.2,1154.3,1198.9,1146.3,1199.6,1139.4z"/>
		</g>
		<g>
			<path class="st43" d="M1312.6,1368.9c0-0.2,0-0.4,0-0.6c-0.3-13.2-6.8-65.8-17.7-100.8c-5.3-17-6.5-28.8-8.6-30.3
				c-3.6-2.5-35.1-11.9-48.6-17.1c-0.4-0.2-0.9-0.3-1.3-0.5c-1.2-0.5-2.4-0.9-3.6-1.4c-0.6-0.2-1.2-0.4-1.7-0.7
				c-0.3-0.1-0.6-0.2-0.9-0.3c-0.3-0.1-0.5-0.2-0.7-0.3c0,0,0,0-0.1,0.1c-1.2,1.3-7.4,8.4-14.8,18.9c-13.8,19.7-31.9,51.6-29.1,81
				c0.9,9.4,2,23,3.8,38.2c0.2,1.3,0.3,2.6,0.5,3.9c0.4,3.5,0.9,7.1,1.5,10.7c0.3,2.2,0.7,4.4,1,6.6c3.7,22.8,15.2,38.4,25.4,57
				c0.1,0.2,0.2,0.3,0.3,0.5c0,0.1,0.1,0.2,0.1,0.3c0.2,0.4,0.4,0.8,0.7,1.2c0.3,0.7,0.7,1.3,1,2c0.2,0.4,0.4,0.8,0.6,1.1
				c2,3.7,3.9,7.6,5.7,11.4c1.2,2.5,2.4,5,3.5,7.5c0.1,0.3,0.2,0.5,0.4,0.8c0,0,1.9,4.4,4.3,10c0.9,2.1,1.8,4.3,2.8,6.5
				c0.7,1.5,1.3,3.1,2,4.6c0.6,1.3,1.1,2.6,1.6,3.8c1.2,2.7,2.2,5.1,2.9,6.7c0.5,1.2,0.9,2.1,1,2.4c3.5,8.8,6,15.6,7.2,18.7
				c0.5,1.3,0.7,2,0.7,2l35.3-19.5c6.7-3.4,3.2-21.4,0.7-28.5c-2.1-5.9-5-12.2-8.4-18.7c-1.4-2.7-2.8-5.3-4.2-8.1
				c11-19.3,22.2-39.2,29.3-52.7C1309.7,1376.5,1312.6,1370.5,1312.6,1368.9z M1256.5,1313.7c0,0,0-0.1,0-0.1c0-0.1,0-0.1,0-0.2
				c0-0.1,0-0.2,0.1-0.3c0,0,0-0.1,0-0.1c0,0,0,0,0,0c0,0,0,0,0,0c0,0,17.2,26.8,15.9,50.1c-0.2,3.6-3.8,12.8-9.1,24.6c0,0,0,0,0,0
				c-1.9,4.3-4,8.9-6.3,13.7c-0.1-0.2-0.2-0.4-0.3-0.6c-3.3-8-5.4-15.5-5.4-22.1C1251.5,1378.7,1252.9,1327.6,1256.5,1313.7z"/>
		</g>
		<g>
			<path class="st43" d="M989,1330.1l79.9,17.4l38.1-99.6c0.8-0.7,11.8-6.5,19-10c7.5-3.6,17.1-8,25.5-11.9c4-1.9,7.8-3.6,11-5.1
				l0.3,0.2c0,0-4.7,15.7-10.8,54.9c0,0,0,0,0,0c-0.2,1.3-0.4,2.7-0.6,4c0,0.2,0,0.3-0.1,0.5c-0.1,0.9-0.3,1.8-0.4,2.8
				c0,0.1,0,0.2-0.1,0.3c-0.1,0.6-0.2,1.3-0.3,1.9c-0.2,1.5-0.5,3.1-0.7,4.7c-2.7,19.1-6.5,51.6-10.2,84.3v0
				c-2.9,25.8-9.5,52.4-11.6,72.1c0,0,0,0,0,0c-0.4,3.9-1.4,9-2.7,14.9c-0.1,0.7-0.3,1.3-0.5,2c-5.9,25-17.4,60.3-17.4,60.3
				l-3.3-3.1l-9.9-9.1c-2.3-2.1-3.1-5.3-2.2-8.3c5.5-17.7,24.2-80.4,27.6-124.5c0,0,0,0,0,0c1.1-13.8-3-26.9-5.3-39.3
				c0,0.1-0.1,0.2-0.1,0.3c-2,5.5-4.1,11.4-6.3,17.2v0c-5.9,15.5-11.9,29.9-14.4,30.8c-5.6,2.1-110.8-26.7-111.5-30.8L989,1330.1z"
				/>
		</g>
		<g>
			<path class="st71" d="M1220.2,1259.9l-16.3,9.2l7,7.1l-18.6,100.2c-3.8-23.5-5.5-45.8-6.8-59.5c-4.3-45.5,41.2-96.8,44-100
				c2.2,0.8,4.5,1.7,7,2.7L1220.2,1259.9z"/>
		</g>
		<g>
			<path class="st71" d="M1163,1220.6c0,0-6.1,19.9-13.2,69.6c-2.7,19.1-6.5,51.6-10.2,84.3l-3.8-93.8l7.8-8.4l-6.9-8.6l14.8-37.7
				c4-1.9,7.8-3.6,11.1-5.1L1163,1220.6z"/>
		</g>
		<g>
			<path class="st72" d="M1230.3,1217.1l-13.5-8.2c0,0-0.4,7.4-33.9,26.8l9.5,26.8L1230.3,1217.1z"/>
		</g>
		<g>
			<path class="st72" d="M1174,1212.6c0,0,0.5,8,8.9,23l-18.6,24.2l-1.4-39.2L1174,1212.6z"/>
		</g>
		<g>
			<path class="st66" d="M1183,1235.7c0,0,3.6,14.4,2.3,18.4c0,0-7.9,2.9-13.6-0.7C1171.7,1253.4,1175.7,1243.3,1183,1235.7z"/>
		</g>
		<g>
			<g>
				<path class="st73" d="M1164.4,1443.2c-2-10.2-0.1-40.6,0-41.9l1.7,0.1c0,0.3-2,31.5,0,41.4L1164.4,1443.2z"/>
			</g>
		</g>
		<g>
			<path class="st74" d="M1178.5,1438.5c0,0-16.2,1.9-21.6,3.3l0.7,18.2l21.3-2.3L1178.5,1438.5z"/>
		</g>
		<g>
			<path class="st66" d="M1174.9,1252.1c0,0-18.1,45.7-15.2,96.9c3.1,53.1,8.1,72.3,8.1,72.3l11.2,14l4.9-17.2
				c0,0-15-67.6-5.3-133.5c1.8-11.9,4.4-34.5,4.4-34.5L1174.9,1252.1z"/>
		</g>
		<g>
			<path class="st16" d="M1229.3,1468c0,0-3.9,7.8-7.8,9.1c-3.9,1.3-9.5,7.6-9.5,7.6l27.4,14.4c0,0,7.3-14.2,7.6-23.3
				C1247.3,1466.7,1229.3,1468,1229.3,1468z"/>
		</g>
		<g>
			<path class="st69" d="M1226.7,1468.7l-1.8,3.6c0,0,17.4,12.7,22.1,13.5l1.6-4.9L1226.7,1468.7z"/>
		</g>
		<g>
			<path class="st43" d="M1224.9,1468.9c0,0,13,10.8,24,15.7l36.9-66.4l-19.1-37C1266.7,1381.3,1225.8,1462.4,1224.9,1468.9z"/>
		</g>
		<g>
			<path class="st68" d="M1114.7,1316.5c-0.6,12.3-0.5,23.2-0.5,23.2s0,0,0,0c0,0.1,0,0.4,0,0.9c0-0.2-0.1-0.4-0.1-0.6
				c-2,5.5-4.1,11.4-6.3,17.2c-0.5-6.7-0.6-12.9-0.5-18.7c0.9-34.4,11.7-52.5,11.7-52.5C1116.5,1292,1115.3,1304.9,1114.7,1316.5z"
				/>
		</g>
		<g>
			<path class="st68" d="M1280,1446.1l-29.5,35.7l25.3-43.7C1277.2,1440.7,1278.7,1443.4,1280,1446.1z"/>
		</g>
		<g>
			<path class="st75" d="M1065.5,1401.3h-68.2c-4.7,0-8.7-3.2-9.8-7.7l-29.6-122.3c-1.5-6.4,3.3-12.5,9.8-12.5h68.2
				c4.7,0,8.7,3.2,9.8,7.7l29.6,122.3C1076.9,1395.2,1072.1,1401.3,1065.5,1401.3z"/>
		</g>
		<g>
			<g>
				<path class="st16" d="M982.1,1367.3c3.3-3.1,9.8-4.9,15.3-8.6c5.5-3.7,0.9-7.5,0.9-7.5c5.7-1.9,5.1-4.5,4.3-6.3
					c-1-2.4-7.2-1.7-7.2-1.7s5.5-1.2,7.8-2.2c2.3-1,1.5-5-2-6.2c-3.5-1.3-17.8,2.3-17.8,2.3s2.3-1.1,9.4-4.7
					c7.1-3.5,8.6-6.8,4.4-8.3c-2.9-1.1-8.6,1.2-19.5,8.5c-8.2,5.5-7.5,6.2-7.5,6.2S978.1,1371,982.1,1367.3z"/>
			</g>
		</g>
	</g>
	<g>
		<g>
			<polygon class="st76" points="1494.6,1626.9 1798.6,1626.9 1702.8,1921.2 1711.8,1924.1 1811.6,1617.5 1487.8,1617.5 
				1388.9,1921.2 1397.9,1924.1 			"/>
		</g>
		<g>
			<polygon class="st76" points="1598.1,1921.2 1502.3,1626.9 1806.3,1626.9 1903,1924.1 1912,1921.2 1813.1,1617.5 1489.3,1617.5 
				1589.1,1924.1 			"/>
		</g>
		<g>
			<rect x="1466.3" y="1710.2" class="st76" width="372.1" height="9.4"/>
		</g>
		<g>
			<rect x="1428" y="1812.5" class="st76" width="445.2" height="9.4"/>
		</g>
	</g>
	<g>
		<g>
			<g>
				<path class="st16" d="M1647,955.4c0,0,7.6-13.3-4.4-48.8c-11.6-34.4-51.9-31.3-64.6-9.2c-12.8,22-8.5,35.7,10.4,60.6
					C1607.1,982.8,1639.1,966.7,1647,955.4z"/>
			</g>
		</g>
		<g>
			<g>
				<path class="st16" d="M1553.5,1566.9c0,0-2,14.6-2.2,16.8c-0.2,2.2-22.1-1.3-22.1-1.3l-1.8-17.4
					C1527.3,1565,1550.8,1564.8,1553.5,1566.9z"/>
			</g>
		</g>
		<g>
			<g>
				<path class="st77" d="M1551.5,1581.8c0,0,6.9,8.8,13.7,12.6c6.7,3.8,17.3,5.4,21.2,9.3c2.9,2.9,10.4,15.2-17.4,14.9
					c-27.9-0.2-41.3,1.7-44.3-3s4.3-34.9,4.3-34.9S1535.8,1582.8,1551.5,1581.8z"/>
			</g>
		</g>
		<g>
			<g>
				<path class="st16" d="M1705.1,1566.9c0,0-2,14.6-2.2,16.8c-0.2,2.2-22.2-1.3-22.2-1.3l-1.8-17.4
					C1679,1565,1702.4,1564.8,1705.1,1566.9z"/>
			</g>
		</g>
		<g>
			<g>
				<path class="st77" d="M1703.1,1581.8c0,0,6.9,8.8,13.7,12.6c6.7,3.8,31.4,7,35.4,11c2.9,2.9,7.6,14.4-31.6,13.3
					c-27.9-0.8-41.3,1.7-44.3-3s4.3-34.9,4.3-34.9S1689.2,1582.4,1703.1,1581.8z"/>
			</g>
		</g>
		<g>
			<g>
				<path class="st78" d="M1560.9,1203.4c0,0-11.2,34.9-9.8,65c1.5,30.1-5.8,63-8.8,94.4c-3.3,35-16.9,117.9-17.4,136.7
					c-0.5,18.7,2.1,78.6,2.1,78.6l27.2,0.7c0,0,22.8-144.9,28.8-159.7c5.9-14.8,35.3-120.2,36.2-132.1
					C1620.2,1275,1560.9,1203.4,1560.9,1203.4z"/>
			</g>
		</g>
		<g>
			<g>
				<path class="st78" d="M1673.6,1199.8c0,0,16.5,92.3,18.5,110.7c2,18.4,3.3,89.1,4.3,100.6c1,11.5,6.6,150.5,11.8,167.6h-30.3
					c0,0-31.1-101.1-31.1-148.9c0-47.8-20.6-104-33.9-135.5s-43.8-32.3-52-90.8C1560.9,1203.4,1662.6,1181.2,1673.6,1199.8z"/>
			</g>
		</g>
		<g>
			<g>
				<path class="st16" d="M1636,964.7c0,0-3.4,10,0,17.1c3.4,7.1-43.7,2.8-43.7,2.8s2.1-14.7-4-26.8
					C1582.1,945.8,1636,964.7,1636,964.7z"/>
			</g>
		</g>
		<g>
			<g>
				<path class="st78" d="M1558.7,1211c0,0,16.9,17.4,116.5-2.7l-1.5-8.5l-113.1,4.3L1558.7,1211z"/>
			</g>
		</g>
		<g>
			<g>
				<path class="st16" d="M1643.1,984.1c0,0,17.4,1.8,22.4,2.7c5,0.9,38.4-6,45.3-6.7c6.9-0.7,36.2-20.8,37.1-23.1
					c0.9-2.4,17.8-45.1,18.8-54.3c0.9-9.2,16.4-4.5,15.1,1.9c-2.5,11.9-5.7,40.8-7.4,49.2c-1.9,9-6.9,29.5-9.8,32.1
					c-2.8,2.5-29.2,22.6-55,31.1c-25.8,8.5-45.2,21.1-45.2,21.1h-127.2c0,0-49.5-70.7-50.5-81.4c-1.1-10.7,34.6-81.5,41.7-90.4
					c7.1-8.9,17.4,2.9,17.4,2.9s-21.3,62.5-24.1,71.3c-2.8,8.9,24.8,47.9,32.3,48c7.6,0.1,27-2.4,35.7-2.7
					c8.6-0.4,17.8-4.1,17.8-4.1L1643.1,984.1z"/>
			</g>
		</g>
		<g>
			<g>
				<path class="st79" d="M1697.9,1031.4c0,0-15.6,10.4-17,28.1c-1.4,17.8-7.1,45.8-9.9,55.4c-2.8,9.6,2.5,79.2,3.2,84.2
					c0.7,5-98.4,16.8-113.7,5c0,0-4.3-65-6-83.5c-1.8-18.5-10.3-63.2-13.1-69.3c-2.8-6-37.3-54.4-38.7-60.7c0,0,17.8-28.4,30.6-28.8
					c0,0,20.3,23.8,26.9,24.9c6.6,1.1,47.2-6.4,47.2-6.4c0,0,4.4,6,28-1.1c0,0,28,3.2,32.6,3.7c5.5,0.7,43.9-4.8,43.9-4.8
					s15.4,26,12.7,39.2L1697.9,1031.4z"/>
			</g>
		</g>
		<g>
			<g>
				<path class="st16" d="M1765.8,908.2c0,0,3.5-16.5-0.7-21.2c-2.4-2.7-8.1-9.8-8.6-10.9c-0.5-1-6.7-4.6-6.7-6.3
					c0-1.7,6-3.8,11.3,1c5.2,4.8,8.5,5.9,10.6,5.4c2.1-0.5,5.1-17.9,5.4-22.2c0.3-4.3,1.9-15.7,4.6-14.9c2.7,0.8,2.6,5.8,2.6,5.8
					s3.1-8.6,5.2-6.9c2.1,1.7,1.8,5.9,1.8,5.9s3.9-4.8,5-1.3s0,6.7,0,6.7s4.1-2.2,4.3,3.3c0.3,5.5-1.2,21.6-4.1,27.3
					c-2.9,5.8-13.7,20.8-14.9,26.7C1780.2,912.4,1765.8,908.2,1765.8,908.2z"/>
			</g>
		</g>
		<g>
			<g>
				<path class="st16" d="M1542.1,879.3c0,0,11.8-19.9,15.9-21.7c4-1.8,9.7-2.8,14.7-6.3c5-3.6,11.5-6.5,11.2-7.7
					c-0.4-1.2-6.2-0.7-12.5,2c-6.3,2.7-9,1.4-9.6,0c-0.6-1.4,3.3-11.5,5.2-13.8c1.9-2.4,15.4-15.9,13.1-18c-2.2-2-11,5.4-12.4,7
					c0,0,7-14.7,4.3-15.4c-2.7-0.7-7.8,4.5-7.8,4.5s0.6-12.6-12.9,7.8c0,0,2.8-6.8-1.3-4.5c-4.1,2.2-8.2,14.9-9.5,21.3
					c-1.3,6.4-7.2,26.8-12.2,31.7C1523.1,871.1,1542.1,879.3,1542.1,879.3z"/>
			</g>
		</g>
		<g>
			<g>
				<path class="st64" d="M1588.2,957.9c0,0,6.2,0.6,19.5-4c13.3-4.6,14.3-27.8,17.1-25c5.9,5.6,11.4,1.7,13.6-1.6
					c0,0-6.5-8.5-3.5-12.6c3-4.1,7.9-7.1,7.9-7.1s-9.3-45-51.8-24.5C1541.3,907,1588.2,957.9,1588.2,957.9z"/>
			</g>
		</g>
		<g>
			<g>
				<path class="st79" d="M1636,981.8l-1.5-6.5c0,0-27.1-0.6-41.9,1.6l-1.6,7.8C1591,984.7,1610,993.3,1636,981.8z"/>
			</g>
		</g>
		<g>
			<g>
				<path class="st16" d="M1629.3,923.2c-2.5-4.1-11.6-6.8-12.6,4.7c-0.8,9,16.3,18.8,16.4,10.4
					C1633.2,929.9,1630.9,925.9,1629.3,923.2z"/>
			</g>
		</g>
		<g>
			<g>
				<path class="st80" d="M1766.4,904.5c0,0,9.8,0.2,14.5,4.5c0,0,0.3,2.7-0.8,4.9c0,0-8.5-4-15-4.7
					C1765.2,909.2,1765.3,905.6,1766.4,904.5z"/>
			</g>
		</g>
		<g>
			<g>
				<path class="st64" d="M1777.9,906.9c0.9,2.1-0.1,4.6-2.2,5.5c-2.1,0.9-4.6-0.1-5.5-2.2c-0.9-2.1,0.1-4.6,2.2-5.5
					C1774.6,903.8,1777,904.8,1777.9,906.9z"/>
			</g>
		</g>
	</g>
</g>
</svg>
